solid OpenSCAD_Model
  facet normal -0.996917 0.0784632 0
    outer loop
      vertex 20.9692 39.6089 0
      vertex 21 40 4
      vertex 21 40 0
    endloop
  endfacet
  facet normal -0.996917 0.0784632 0
    outer loop
      vertex 21 40 4
      vertex 20.9692 39.6089 0
      vertex 20.9692 39.6089 4
    endloop
  endfacet
  facet normal 0.996917 0.0784632 0
    outer loop
      vertex 16.0308 39.6089 4
      vertex 16 40 0
      vertex 16 40 4
    endloop
  endfacet
  facet normal 0.996917 0.0784632 0
    outer loop
      vertex 16 40 0
      vertex 16.0308 39.6089 4
      vertex 16.0308 39.6089 0
    endloop
  endfacet
  facet normal -0.0784632 0.996917 0
    outer loop
      vertex 18.8911 37.5308 0
      vertex 18.5 37.5 4
      vertex 18.8911 37.5308 4
    endloop
  endfacet
  facet normal -0.0784632 0.996917 0
    outer loop
      vertex 18.5 37.5 4
      vertex 18.8911 37.5308 0
      vertex 18.5 37.5 0
    endloop
  endfacet
  facet normal 0.76041 -0.649444 0
    outer loop
      vertex 16.4775 41.4695 4
      vertex 16.7322 41.7678 0
      vertex 16.7322 41.7678 4
    endloop
  endfacet
  facet normal 0.76041 -0.649444 0
    outer loop
      vertex 16.7322 41.7678 0
      vertex 16.4775 41.4695 4
      vertex 16.4775 41.4695 0
    endloop
  endfacet
  facet normal -0.76041 0.649444 0
    outer loop
      vertex 20.2678 38.2322 0
      vertex 20.5225 38.5305 4
      vertex 20.5225 38.5305 0
    endloop
  endfacet
  facet normal -0.76041 0.649444 0
    outer loop
      vertex 20.5225 38.5305 4
      vertex 20.2678 38.2322 0
      vertex 20.2678 38.2322 4
    endloop
  endfacet
  facet normal 0.649443 0.76041 -0
    outer loop
      vertex 17.0305 37.9775 0
      vertex 16.7322 38.2322 4
      vertex 17.0305 37.9775 4
    endloop
  endfacet
  facet normal 0.649443 0.76041 0
    outer loop
      vertex 16.7322 38.2322 4
      vertex 17.0305 37.9775 0
      vertex 16.7322 38.2322 0
    endloop
  endfacet
  facet normal 0.38268 0.923881 -0
    outer loop
      vertex 17.7275 37.6224 0
      vertex 17.365 37.7725 4
      vertex 17.7275 37.6224 4
    endloop
  endfacet
  facet normal 0.38268 0.923881 0
    outer loop
      vertex 17.365 37.7725 4
      vertex 17.7275 37.6224 0
      vertex 17.365 37.7725 0
    endloop
  endfacet
  facet normal -0.923881 0.38268 0
    outer loop
      vertex 20.7275 38.865 0
      vertex 20.8776 39.2275 4
      vertex 20.8776 39.2275 0
    endloop
  endfacet
  facet normal -0.923881 0.38268 0
    outer loop
      vertex 20.8776 39.2275 4
      vertex 20.7275 38.865 0
      vertex 20.7275 38.865 4
    endloop
  endfacet
  facet normal -0.97237 0.233446 0
    outer loop
      vertex 20.8776 39.2275 0
      vertex 20.9692 39.6089 4
      vertex 20.9692 39.6089 0
    endloop
  endfacet
  facet normal -0.97237 0.233446 0
    outer loop
      vertex 20.9692 39.6089 4
      vertex 20.8776 39.2275 0
      vertex 20.8776 39.2275 4
    endloop
  endfacet
  facet normal -0.852639 0.5225 0
    outer loop
      vertex 20.5225 38.5305 0
      vertex 20.7275 38.865 4
      vertex 20.7275 38.865 0
    endloop
  endfacet
  facet normal -0.852639 0.5225 0
    outer loop
      vertex 20.7275 38.865 4
      vertex 20.5225 38.5305 0
      vertex 20.5225 38.5305 4
    endloop
  endfacet
  facet normal -0.5225 0.852639 0
    outer loop
      vertex 19.9695 37.9775 0
      vertex 19.635 37.7725 4
      vertex 19.9695 37.9775 4
    endloop
  endfacet
  facet normal -0.5225 0.852639 0
    outer loop
      vertex 19.635 37.7725 4
      vertex 19.9695 37.9775 0
      vertex 19.635 37.7725 0
    endloop
  endfacet
  facet normal -0.38268 0.923881 0
    outer loop
      vertex 19.635 37.7725 0
      vertex 19.2725 37.6224 4
      vertex 19.635 37.7725 4
    endloop
  endfacet
  facet normal -0.38268 0.923881 0
    outer loop
      vertex 19.2725 37.6224 4
      vertex 19.635 37.7725 0
      vertex 19.2725 37.6224 0
    endloop
  endfacet
  facet normal -0.649443 0.76041 0
    outer loop
      vertex 20.2678 38.2322 0
      vertex 19.9695 37.9775 4
      vertex 20.2678 38.2322 4
    endloop
  endfacet
  facet normal -0.649443 0.76041 0
    outer loop
      vertex 19.9695 37.9775 4
      vertex 20.2678 38.2322 0
      vertex 19.9695 37.9775 0
    endloop
  endfacet
  facet normal 0.852639 0.5225 0
    outer loop
      vertex 16.4775 38.5305 4
      vertex 16.2725 38.865 0
      vertex 16.2725 38.865 4
    endloop
  endfacet
  facet normal 0.852639 0.5225 0
    outer loop
      vertex 16.2725 38.865 0
      vertex 16.4775 38.5305 4
      vertex 16.4775 38.5305 0
    endloop
  endfacet
  facet normal 0.76041 0.649444 0
    outer loop
      vertex 16.7322 38.2322 4
      vertex 16.4775 38.5305 0
      vertex 16.4775 38.5305 4
    endloop
  endfacet
  facet normal 0.76041 0.649444 0
    outer loop
      vertex 16.4775 38.5305 0
      vertex 16.7322 38.2322 4
      vertex 16.7322 38.2322 0
    endloop
  endfacet
  facet normal 0.923881 0.38268 0
    outer loop
      vertex 16.2725 38.865 4
      vertex 16.1224 39.2275 0
      vertex 16.1224 39.2275 4
    endloop
  endfacet
  facet normal 0.923881 0.38268 0
    outer loop
      vertex 16.1224 39.2275 0
      vertex 16.2725 38.865 4
      vertex 16.2725 38.865 0
    endloop
  endfacet
  facet normal 0.5225 0.852639 -0
    outer loop
      vertex 17.365 37.7725 0
      vertex 17.0305 37.9775 4
      vertex 17.365 37.7725 4
    endloop
  endfacet
  facet normal 0.5225 0.852639 0
    outer loop
      vertex 17.0305 37.9775 4
      vertex 17.365 37.7725 0
      vertex 17.0305 37.9775 0
    endloop
  endfacet
  facet normal 0.233446 0.97237 -0
    outer loop
      vertex 18.1089 37.5308 0
      vertex 17.7275 37.6224 4
      vertex 18.1089 37.5308 4
    endloop
  endfacet
  facet normal 0.233446 0.97237 0
    outer loop
      vertex 17.7275 37.6224 4
      vertex 18.1089 37.5308 0
      vertex 17.7275 37.6224 0
    endloop
  endfacet
  facet normal -0.5225 -0.852639 0
    outer loop
      vertex 19.635 42.2275 0
      vertex 19.9695 42.0225 4
      vertex 19.635 42.2275 4
    endloop
  endfacet
  facet normal -0.5225 -0.852639 -0
    outer loop
      vertex 19.9695 42.0225 4
      vertex 19.635 42.2275 0
      vertex 19.9695 42.0225 0
    endloop
  endfacet
  facet normal 0.649443 -0.76041 0
    outer loop
      vertex 16.7322 41.7678 0
      vertex 17.0305 42.0225 4
      vertex 16.7322 41.7678 4
    endloop
  endfacet
  facet normal 0.649443 -0.76041 0
    outer loop
      vertex 17.0305 42.0225 4
      vertex 16.7322 41.7678 0
      vertex 17.0305 42.0225 0
    endloop
  endfacet
  facet normal 0.38268 -0.923881 0
    outer loop
      vertex 17.365 42.2275 0
      vertex 17.7275 42.3776 4
      vertex 17.365 42.2275 4
    endloop
  endfacet
  facet normal 0.38268 -0.923881 0
    outer loop
      vertex 17.7275 42.3776 4
      vertex 17.365 42.2275 0
      vertex 17.7275 42.3776 0
    endloop
  endfacet
  facet normal 0.852639 -0.5225 0
    outer loop
      vertex 16.2725 41.135 4
      vertex 16.4775 41.4695 0
      vertex 16.4775 41.4695 4
    endloop
  endfacet
  facet normal 0.852639 -0.5225 0
    outer loop
      vertex 16.4775 41.4695 0
      vertex 16.2725 41.135 4
      vertex 16.2725 41.135 0
    endloop
  endfacet
  facet normal -0.233446 0.97237 0
    outer loop
      vertex 19.2725 37.6224 0
      vertex 18.8911 37.5308 4
      vertex 19.2725 37.6224 4
    endloop
  endfacet
  facet normal -0.233446 0.97237 0
    outer loop
      vertex 18.8911 37.5308 4
      vertex 19.2725 37.6224 0
      vertex 18.8911 37.5308 0
    endloop
  endfacet
  facet normal 0.97237 0.233446 0
    outer loop
      vertex 16.1224 39.2275 4
      vertex 16.0308 39.6089 0
      vertex 16.0308 39.6089 4
    endloop
  endfacet
  facet normal 0.97237 0.233446 0
    outer loop
      vertex 16.0308 39.6089 0
      vertex 16.1224 39.2275 4
      vertex 16.1224 39.2275 0
    endloop
  endfacet
  facet normal 0.0784632 0.996917 -0
    outer loop
      vertex 18.5 37.5 0
      vertex 18.1089 37.5308 4
      vertex 18.5 37.5 4
    endloop
  endfacet
  facet normal 0.0784632 0.996917 0
    outer loop
      vertex 18.1089 37.5308 4
      vertex 18.5 37.5 0
      vertex 18.1089 37.5308 0
    endloop
  endfacet
  facet normal -0.0784632 -0.996917 0
    outer loop
      vertex 18.5 42.5 0
      vertex 18.8911 42.4692 4
      vertex 18.5 42.5 4
    endloop
  endfacet
  facet normal -0.0784632 -0.996917 -0
    outer loop
      vertex 18.8911 42.4692 4
      vertex 18.5 42.5 0
      vertex 18.8911 42.4692 0
    endloop
  endfacet
  facet normal -0.38268 -0.923881 0
    outer loop
      vertex 19.2725 42.3776 0
      vertex 19.635 42.2275 4
      vertex 19.2725 42.3776 4
    endloop
  endfacet
  facet normal -0.38268 -0.923881 -0
    outer loop
      vertex 19.635 42.2275 4
      vertex 19.2725 42.3776 0
      vertex 19.635 42.2275 0
    endloop
  endfacet
  facet normal -0.649443 -0.76041 0
    outer loop
      vertex 19.9695 42.0225 0
      vertex 20.2678 41.7678 4
      vertex 19.9695 42.0225 4
    endloop
  endfacet
  facet normal -0.649443 -0.76041 -0
    outer loop
      vertex 20.2678 41.7678 4
      vertex 19.9695 42.0225 0
      vertex 20.2678 41.7678 0
    endloop
  endfacet
  facet normal -0.923881 -0.38268 0
    outer loop
      vertex 20.8776 40.7725 0
      vertex 20.7275 41.135 4
      vertex 20.7275 41.135 0
    endloop
  endfacet
  facet normal -0.923881 -0.38268 0
    outer loop
      vertex 20.7275 41.135 4
      vertex 20.8776 40.7725 0
      vertex 20.8776 40.7725 4
    endloop
  endfacet
  facet normal -0.76041 -0.649444 0
    outer loop
      vertex 20.5225 41.4695 0
      vertex 20.2678 41.7678 4
      vertex 20.2678 41.7678 0
    endloop
  endfacet
  facet normal -0.76041 -0.649444 0
    outer loop
      vertex 20.2678 41.7678 4
      vertex 20.5225 41.4695 0
      vertex 20.5225 41.4695 4
    endloop
  endfacet
  facet normal 0.5225 -0.852639 0
    outer loop
      vertex 17.0305 42.0225 0
      vertex 17.365 42.2275 4
      vertex 17.0305 42.0225 4
    endloop
  endfacet
  facet normal 0.5225 -0.852639 0
    outer loop
      vertex 17.365 42.2275 4
      vertex 17.0305 42.0225 0
      vertex 17.365 42.2275 0
    endloop
  endfacet
  facet normal 0.233446 -0.97237 0
    outer loop
      vertex 17.7275 42.3776 0
      vertex 18.1089 42.4692 4
      vertex 17.7275 42.3776 4
    endloop
  endfacet
  facet normal 0.233446 -0.97237 0
    outer loop
      vertex 18.1089 42.4692 4
      vertex 17.7275 42.3776 0
      vertex 18.1089 42.4692 0
    endloop
  endfacet
  facet normal 0.923881 -0.38268 0
    outer loop
      vertex 16.1224 40.7725 4
      vertex 16.2725 41.135 0
      vertex 16.2725 41.135 4
    endloop
  endfacet
  facet normal 0.923881 -0.38268 0
    outer loop
      vertex 16.2725 41.135 0
      vertex 16.1224 40.7725 4
      vertex 16.1224 40.7725 0
    endloop
  endfacet
  facet normal 0.996917 -0.0784632 0
    outer loop
      vertex 16 40 4
      vertex 16.0308 40.3911 0
      vertex 16.0308 40.3911 4
    endloop
  endfacet
  facet normal 0.996917 -0.0784632 0
    outer loop
      vertex 16.0308 40.3911 0
      vertex 16 40 4
      vertex 16 40 0
    endloop
  endfacet
  facet normal -0.233446 -0.97237 0
    outer loop
      vertex 18.8911 42.4692 0
      vertex 19.2725 42.3776 4
      vertex 18.8911 42.4692 4
    endloop
  endfacet
  facet normal -0.233446 -0.97237 -0
    outer loop
      vertex 19.2725 42.3776 4
      vertex 18.8911 42.4692 0
      vertex 19.2725 42.3776 0
    endloop
  endfacet
  facet normal -0.97237 -0.233446 0
    outer loop
      vertex 20.9692 40.3911 0
      vertex 20.8776 40.7725 4
      vertex 20.8776 40.7725 0
    endloop
  endfacet
  facet normal -0.97237 -0.233446 0
    outer loop
      vertex 20.8776 40.7725 4
      vertex 20.9692 40.3911 0
      vertex 20.9692 40.3911 4
    endloop
  endfacet
  facet normal -0.852639 -0.5225 0
    outer loop
      vertex 20.7275 41.135 0
      vertex 20.5225 41.4695 4
      vertex 20.5225 41.4695 0
    endloop
  endfacet
  facet normal -0.852639 -0.5225 0
    outer loop
      vertex 20.5225 41.4695 4
      vertex 20.7275 41.135 0
      vertex 20.7275 41.135 4
    endloop
  endfacet
  facet normal 0.0784632 -0.996917 0
    outer loop
      vertex 18.1089 42.4692 0
      vertex 18.5 42.5 4
      vertex 18.1089 42.4692 4
    endloop
  endfacet
  facet normal 0.0784632 -0.996917 0
    outer loop
      vertex 18.5 42.5 4
      vertex 18.1089 42.4692 0
      vertex 18.5 42.5 0
    endloop
  endfacet
  facet normal 0.97237 -0.233446 0
    outer loop
      vertex 16.0308 40.3911 4
      vertex 16.1224 40.7725 0
      vertex 16.1224 40.7725 4
    endloop
  endfacet
  facet normal 0.97237 -0.233446 0
    outer loop
      vertex 16.1224 40.7725 0
      vertex 16.0308 40.3911 4
      vertex 16.0308 40.3911 0
    endloop
  endfacet
  facet normal -0.996917 -0.0784632 0
    outer loop
      vertex 21 40 0
      vertex 20.9692 40.3911 4
      vertex 20.9692 40.3911 0
    endloop
  endfacet
  facet normal -0.996917 -0.0784632 0
    outer loop
      vertex 20.9692 40.3911 4
      vertex 21 40 0
      vertex 21 40 4
    endloop
  endfacet
  facet normal 0 0 -1
    outer loop
      vertex 41 0 0
      vertex 25 10 0
      vertex 41 5 0
    endloop
  endfacet
  facet normal 0 0 -1
    outer loop
      vertex 20.7275 38.865 0
      vertex 25 44 0
      vertex 25 10 0
    endloop
  endfacet
  facet normal 0 0 -1
    outer loop
      vertex 25 44 0
      vertex 20.9692 39.6089 0
      vertex 21 40 0
    endloop
  endfacet
  facet normal 0 0 -1
    outer loop
      vertex 25 44 0
      vertex 20.8776 39.2275 0
      vertex 20.9692 39.6089 0
    endloop
  endfacet
  facet normal 0 0 -1
    outer loop
      vertex 25 44 0
      vertex 20.7275 38.865 0
      vertex 20.8776 39.2275 0
    endloop
  endfacet
  facet normal 0 0 -1
    outer loop
      vertex 25 10 0
      vertex 20.5225 38.5305 0
      vertex 20.7275 38.865 0
    endloop
  endfacet
  facet normal 0 0 -1
    outer loop
      vertex 18.5 35 0
      vertex 20.5225 38.5305 0
      vertex 25 10 0
    endloop
  endfacet
  facet normal 0 0 -1
    outer loop
      vertex 20.5225 38.5305 0
      vertex 18.5 35 0
      vertex 20.2678 38.2322 0
    endloop
  endfacet
  facet normal 0 0 -1
    outer loop
      vertex 20.2678 38.2322 0
      vertex 18.5 35 0
      vertex 19.9695 37.9775 0
    endloop
  endfacet
  facet normal 0 0 -1
    outer loop
      vertex 18.4754 35.3129 0
      vertex 19.9695 37.9775 0
      vertex 18.5 35 0
    endloop
  endfacet
  facet normal 0 0 -1
    outer loop
      vertex 19.9695 37.9775 0
      vertex 18.4754 35.3129 0
      vertex 19.635 37.7725 0
    endloop
  endfacet
  facet normal 0 0 -1
    outer loop
      vertex 18.5 35 0
      vertex 25 10 0
      vertex 18.5 14 0
    endloop
  endfacet
  facet normal 0 0 -1
    outer loop
      vertex 15 0 0
      vertex 25 10 0
      vertex 41 0 0
    endloop
  endfacet
  facet normal 0 0 -1
    outer loop
      vertex 25 10 0
      vertex 15 0 0
      vertex 15 7.5 0
    endloop
  endfacet
  facet normal -0 0 -1
    outer loop
      vertex 25 10 0
      vertex 15 7.5 0
      vertex 18.5 14 0
    endloop
  endfacet
  facet normal 0 0 -1
    outer loop
      vertex 15 7.5 0
      vertex -31.5 14 0
      vertex 18.5 14 0
    endloop
  endfacet
  facet normal 0 0 -1
    outer loop
      vertex -34 31.5 0
      vertex -31.5 14 0
      vertex -34 11.5 0
    endloop
  endfacet
  facet normal 0 0 -1
    outer loop
      vertex 15 7.5 0
      vertex -34 11.5 0
      vertex -31.5 14 0
    endloop
  endfacet
  facet normal 0 0 -1
    outer loop
      vertex -64.5 7.5 0
      vertex -34 11.5 0
      vertex 15 7.5 0
    endloop
  endfacet
  facet normal -0 0 -1
    outer loop
      vertex -54 11.5 0
      vertex -64.5 7.5 0
      vertex -54 31.5 0
    endloop
  endfacet
  facet normal -0 0 -1
    outer loop
      vertex -34 11.5 0
      vertex -64.5 7.5 0
      vertex -54 11.5 0
    endloop
  endfacet
  facet normal 0 0 -1
    outer loop
      vertex 64.5 5 0
      vertex 59 10 0
      vertex 64.5 47.5 0
    endloop
  endfacet
  facet normal 0 0 -1
    outer loop
      vertex 41 5 0
      vertex 59 10 0
      vertex 64.5 5 0
    endloop
  endfacet
  facet normal -0 0 -1
    outer loop
      vertex 59 10 0
      vertex 41 5 0
      vertex 25 10 0
    endloop
  endfacet
  facet normal 0 0 -1
    outer loop
      vertex 59 44 0
      vertex 64.5 47.5 0
      vertex 59 10 0
    endloop
  endfacet
  facet normal 0 0 -1
    outer loop
      vertex 25 44 0
      vertex 64.5 47.5 0
      vertex 59 44 0
    endloop
  endfacet
  facet normal 0 0 -1
    outer loop
      vertex 20.9692 40.3911 0
      vertex 25 44 0
      vertex 21 40 0
    endloop
  endfacet
  facet normal 0 0 -1
    outer loop
      vertex 20.8776 40.7725 0
      vertex 25 44 0
      vertex 20.9692 40.3911 0
    endloop
  endfacet
  facet normal 0 0 -1
    outer loop
      vertex 20.7275 41.135 0
      vertex 25 44 0
      vertex 20.8776 40.7725 0
    endloop
  endfacet
  facet normal 0 0 -1
    outer loop
      vertex 20.5225 41.4695 0
      vertex 25 44 0
      vertex 20.7275 41.135 0
    endloop
  endfacet
  facet normal 0 0 -1
    outer loop
      vertex 20.2678 41.7678 0
      vertex 25 44 0
      vertex 20.5225 41.4695 0
    endloop
  endfacet
  facet normal 0 0 -1
    outer loop
      vertex 19.9695 42.0225 0
      vertex 25 44 0
      vertex 20.2678 41.7678 0
    endloop
  endfacet
  facet normal 0 0 -1
    outer loop
      vertex 19.635 42.2275 0
      vertex 25 44 0
      vertex 19.9695 42.0225 0
    endloop
  endfacet
  facet normal 0 0 -1
    outer loop
      vertex 19.2725 42.3776 0
      vertex 25 44 0
      vertex 19.635 42.2275 0
    endloop
  endfacet
  facet normal 0 0 -1
    outer loop
      vertex 18.8911 42.4692 0
      vertex 25 44 0
      vertex 19.2725 42.3776 0
    endloop
  endfacet
  facet normal 0 0 -1
    outer loop
      vertex 18.5 42.5 0
      vertex 25 44 0
      vertex 18.8911 42.4692 0
    endloop
  endfacet
  facet normal 0 0 -1
    outer loop
      vertex 18.1089 42.4692 0
      vertex 25 44 0
      vertex 18.5 42.5 0
    endloop
  endfacet
  facet normal 0 0 -1
    outer loop
      vertex -29.5 37 0
      vertex 16.0308 40.3911 0
      vertex 16 40 0
    endloop
  endfacet
  facet normal 0 0 -1
    outer loop
      vertex -29.5 37 0
      vertex 16.1224 40.7725 0
      vertex 16.0308 40.3911 0
    endloop
  endfacet
  facet normal 0 0 -1
    outer loop
      vertex -29.5 37 0
      vertex 16.2725 41.135 0
      vertex 16.1224 40.7725 0
    endloop
  endfacet
  facet normal 0 0 -1
    outer loop
      vertex -29.5 37 0
      vertex 16.4775 41.4695 0
      vertex 16.2725 41.135 0
    endloop
  endfacet
  facet normal 0 0 -1
    outer loop
      vertex -29.5 37 0
      vertex 16.7322 41.7678 0
      vertex 16.4775 41.4695 0
    endloop
  endfacet
  facet normal 0 0 -1
    outer loop
      vertex -29.5 37 0
      vertex 17.0305 42.0225 0
      vertex 16.7322 41.7678 0
    endloop
  endfacet
  facet normal 0 0 -1
    outer loop
      vertex -29.5 37 0
      vertex 17.365 42.2275 0
      vertex 17.0305 42.0225 0
    endloop
  endfacet
  facet normal 0 0 -1
    outer loop
      vertex -29.5 37 0
      vertex 17.7275 42.3776 0
      vertex 17.365 42.2275 0
    endloop
  endfacet
  facet normal 0 0 -1
    outer loop
      vertex -64.5 47.5 0
      vertex 17.7275 42.3776 0
      vertex -29.5 37 0
    endloop
  endfacet
  facet normal 0 0 -1
    outer loop
      vertex 17.7275 42.3776 0
      vertex -64.5 47.5 0
      vertex 18.1089 42.4692 0
    endloop
  endfacet
  facet normal 0 0 -1
    outer loop
      vertex -64.5 47.5 0
      vertex -29.5 37 0
      vertex -29.8129 36.9754 0
    endloop
  endfacet
  facet normal 0 0 -1
    outer loop
      vertex -31.5 14 0
      vertex -34 31.5 0
      vertex -31.5 35 0
    endloop
  endfacet
  facet normal -0 0 -1
    outer loop
      vertex -31.5 35 0
      vertex -34 31.5 0
      vertex -31.4754 35.3129 0
    endloop
  endfacet
  facet normal 0 0 -1
    outer loop
      vertex -34 31.5 0
      vertex -31.4021 35.618 0
      vertex -31.4754 35.3129 0
    endloop
  endfacet
  facet normal 0 0 -1
    outer loop
      vertex -54 31.5 0
      vertex -31.4021 35.618 0
      vertex -34 31.5 0
    endloop
  endfacet
  facet normal -0 0 -1
    outer loop
      vertex -31.4021 35.618 0
      vertex -54 31.5 0
      vertex -31.282 35.908 0
    endloop
  endfacet
  facet normal -0 0 -1
    outer loop
      vertex -31.282 35.908 0
      vertex -54 31.5 0
      vertex -31.118 36.1756 0
    endloop
  endfacet
  facet normal 0 0 -1
    outer loop
      vertex -54 31.5 0
      vertex -30.9142 36.4142 0
      vertex -31.118 36.1756 0
    endloop
  endfacet
  facet normal 0 0 -1
    outer loop
      vertex -64.5 47.5 0
      vertex -30.9142 36.4142 0
      vertex -54 31.5 0
    endloop
  endfacet
  facet normal 0 0 -1
    outer loop
      vertex -30.9142 36.4142 0
      vertex -64.5 47.5 0
      vertex -30.6756 36.618 0
    endloop
  endfacet
  facet normal 0 0 -1
    outer loop
      vertex -30.6756 36.618 0
      vertex -64.5 47.5 0
      vertex -30.408 36.782 0
    endloop
  endfacet
  facet normal 0 0 -1
    outer loop
      vertex -30.408 36.782 0
      vertex -64.5 47.5 0
      vertex -30.118 36.9021 0
    endloop
  endfacet
  facet normal 0 0 -1
    outer loop
      vertex 25 44 0
      vertex -64.5 47.5 0
      vertex 64.5 47.5 0
    endloop
  endfacet
  facet normal 0 0 -1
    outer loop
      vertex 18.1089 42.4692 0
      vertex -64.5 47.5 0
      vertex 25 44 0
    endloop
  endfacet
  facet normal 0 0 -1
    outer loop
      vertex -30.118 36.9021 0
      vertex -64.5 47.5 0
      vertex -29.8129 36.9754 0
    endloop
  endfacet
  facet normal 0 0 -1
    outer loop
      vertex -64.5 47.5 0
      vertex -54 31.5 0
      vertex -64.5 7.5 0
    endloop
  endfacet
  facet normal 0 0 -1
    outer loop
      vertex 18.4021 35.618 0
      vertex 19.635 37.7725 0
      vertex 18.4754 35.3129 0
    endloop
  endfacet
  facet normal 0 0 -1
    outer loop
      vertex 19.635 37.7725 0
      vertex 18.4021 35.618 0
      vertex 19.2725 37.6224 0
    endloop
  endfacet
  facet normal 0 0 -1
    outer loop
      vertex 18.282 35.908 0
      vertex 19.2725 37.6224 0
      vertex 18.4021 35.618 0
    endloop
  endfacet
  facet normal 0 0 -1
    outer loop
      vertex 19.2725 37.6224 0
      vertex 18.282 35.908 0
      vertex 18.8911 37.5308 0
    endloop
  endfacet
  facet normal 0 0 -1
    outer loop
      vertex 18.118 36.1756 0
      vertex 18.8911 37.5308 0
      vertex 18.282 35.908 0
    endloop
  endfacet
  facet normal 0 0 -1
    outer loop
      vertex 18.8911 37.5308 0
      vertex 18.118 36.1756 0
      vertex 18.5 37.5 0
    endloop
  endfacet
  facet normal 0 0 -1
    outer loop
      vertex 17.9142 36.4142 0
      vertex 18.5 37.5 0
      vertex 18.118 36.1756 0
    endloop
  endfacet
  facet normal -0 0 -1
    outer loop
      vertex 18.5 37.5 0
      vertex 17.9142 36.4142 0
      vertex 18.1089 37.5308 0
    endloop
  endfacet
  facet normal 0 0 -1
    outer loop
      vertex 17.6756 36.618 0
      vertex 18.1089 37.5308 0
      vertex 17.9142 36.4142 0
    endloop
  endfacet
  facet normal -0 0 -1
    outer loop
      vertex 18.1089 37.5308 0
      vertex 17.6756 36.618 0
      vertex 17.7275 37.6224 0
    endloop
  endfacet
  facet normal 0 0 -1
    outer loop
      vertex 17.408 36.782 0
      vertex 17.7275 37.6224 0
      vertex 17.6756 36.618 0
    endloop
  endfacet
  facet normal 0 0 -1
    outer loop
      vertex 17.118 36.9021 0
      vertex 17.7275 37.6224 0
      vertex 17.408 36.782 0
    endloop
  endfacet
  facet normal -0 0 -1
    outer loop
      vertex 17.7275 37.6224 0
      vertex 17.118 36.9021 0
      vertex 17.365 37.7725 0
    endloop
  endfacet
  facet normal 0 0 -1
    outer loop
      vertex 16.8129 36.9754 0
      vertex 17.365 37.7725 0
      vertex 17.118 36.9021 0
    endloop
  endfacet
  facet normal -0 0 -1
    outer loop
      vertex 17.365 37.7725 0
      vertex 16.8129 36.9754 0
      vertex 17.0305 37.9775 0
    endloop
  endfacet
  facet normal 0 0 -1
    outer loop
      vertex 16.5 37 0
      vertex 17.0305 37.9775 0
      vertex 16.8129 36.9754 0
    endloop
  endfacet
  facet normal -0 0 -1
    outer loop
      vertex 17.0305 37.9775 0
      vertex 16.5 37 0
      vertex 16.7322 38.2322 0
    endloop
  endfacet
  facet normal 0 0 -1
    outer loop
      vertex 16.5 37 0
      vertex 16.4775 38.5305 0
      vertex 16.7322 38.2322 0
    endloop
  endfacet
  facet normal 0 0 -1
    outer loop
      vertex 16.5 37 0
      vertex 16.2725 38.865 0
      vertex 16.4775 38.5305 0
    endloop
  endfacet
  facet normal 0 0 -1
    outer loop
      vertex 16.5 37 0
      vertex 16.1224 39.2275 0
      vertex 16.2725 38.865 0
    endloop
  endfacet
  facet normal 0 0 -1
    outer loop
      vertex 16.5 37 0
      vertex 16.0308 39.6089 0
      vertex 16.1224 39.2275 0
    endloop
  endfacet
  facet normal -0 0 -1
    outer loop
      vertex 16.0308 39.6089 0
      vertex -29.5 37 0
      vertex 16 40 0
    endloop
  endfacet
  facet normal 0 0 -1
    outer loop
      vertex -29.5 37 0
      vertex 16.0308 39.6089 0
      vertex 16.5 37 0
    endloop
  endfacet
  facet normal 0.996917 -0.0784615 0
    outer loop
      vertex -31.5 35 4
      vertex -31.4754 35.3129 0
      vertex -31.4754 35.3129 4
    endloop
  endfacet
  facet normal 0.996917 -0.0784615 0
    outer loop
      vertex -31.4754 35.3129 0
      vertex -31.5 35 4
      vertex -31.5 35 0
    endloop
  endfacet
  facet normal 0.649448 -0.760406 0
    outer loop
      vertex -30.9142 36.4142 0
      vertex -30.6756 36.618 4
      vertex -30.9142 36.4142 4
    endloop
  endfacet
  facet normal 0.649448 -0.760406 0
    outer loop
      vertex -30.6756 36.618 4
      vertex -30.9142 36.4142 0
      vertex -30.6756 36.618 0
    endloop
  endfacet
  facet normal 0.382688 -0.923878 0
    outer loop
      vertex -30.408 36.782 0
      vertex -30.118 36.9021 4
      vertex -30.408 36.782 4
    endloop
  endfacet
  facet normal 0.382688 -0.923878 0
    outer loop
      vertex -30.118 36.9021 4
      vertex -30.408 36.782 0
      vertex -30.118 36.9021 0
    endloop
  endfacet
  facet normal 0.852641 -0.522497 0
    outer loop
      vertex -31.282 35.908 4
      vertex -31.118 36.1756 0
      vertex -31.118 36.1756 4
    endloop
  endfacet
  facet normal 0.852641 -0.522497 0
    outer loop
      vertex -31.118 36.1756 0
      vertex -31.282 35.908 4
      vertex -31.282 35.908 0
    endloop
  endfacet
  facet normal 0.760406 -0.649449 0
    outer loop
      vertex -31.118 36.1756 4
      vertex -30.9142 36.4142 0
      vertex -30.9142 36.4142 4
    endloop
  endfacet
  facet normal 0.760406 -0.649449 0
    outer loop
      vertex -30.9142 36.4142 0
      vertex -31.118 36.1756 4
      vertex -31.118 36.1756 0
    endloop
  endfacet
  facet normal 0.92388 -0.382683 0
    outer loop
      vertex -31.4021 35.618 4
      vertex -31.282 35.908 0
      vertex -31.282 35.908 4
    endloop
  endfacet
  facet normal 0.92388 -0.382683 0
    outer loop
      vertex -31.282 35.908 0
      vertex -31.4021 35.618 4
      vertex -31.4021 35.618 0
    endloop
  endfacet
  facet normal 0.522497 -0.852641 0
    outer loop
      vertex -30.6756 36.618 0
      vertex -30.408 36.782 4
      vertex -30.6756 36.618 4
    endloop
  endfacet
  facet normal 0.522497 -0.852641 0
    outer loop
      vertex -30.408 36.782 4
      vertex -30.6756 36.618 0
      vertex -30.408 36.782 0
    endloop
  endfacet
  facet normal 0.078461 -0.996917 0
    outer loop
      vertex -29.8129 36.9754 0
      vertex -29.5 37 4
      vertex -29.8129 36.9754 4
    endloop
  endfacet
  facet normal 0.078461 -0.996917 0
    outer loop
      vertex -29.5 37 4
      vertex -29.8129 36.9754 0
      vertex -29.5 37 0
    endloop
  endfacet
  facet normal 0.233437 -0.972372 0
    outer loop
      vertex -30.118 36.9021 0
      vertex -29.8129 36.9754 4
      vertex -30.118 36.9021 4
    endloop
  endfacet
  facet normal 0.233437 -0.972372 0
    outer loop
      vertex -29.8129 36.9754 4
      vertex -30.118 36.9021 0
      vertex -29.8129 36.9754 0
    endloop
  endfacet
  facet normal 0.972371 -0.233442 0
    outer loop
      vertex -31.4754 35.3129 4
      vertex -31.4021 35.618 0
      vertex -31.4021 35.618 4
    endloop
  endfacet
  facet normal 0.972371 -0.233442 0
    outer loop
      vertex -31.4021 35.618 0
      vertex -31.4754 35.3129 4
      vertex -31.4754 35.3129 0
    endloop
  endfacet
  facet normal -0.996917 -0.0784615 0
    outer loop
      vertex 18.5 35 0
      vertex 18.4754 35.3129 4
      vertex 18.4754 35.3129 0
    endloop
  endfacet
  facet normal -0.996917 -0.0784615 0
    outer loop
      vertex 18.4754 35.3129 4
      vertex 18.5 35 0
      vertex 18.5 35 4
    endloop
  endfacet
  facet normal -0.649448 -0.760406 0
    outer loop
      vertex 17.6756 36.618 0
      vertex 17.9142 36.4142 4
      vertex 17.6756 36.618 4
    endloop
  endfacet
  facet normal -0.649448 -0.760406 -0
    outer loop
      vertex 17.9142 36.4142 4
      vertex 17.6756 36.618 0
      vertex 17.9142 36.4142 0
    endloop
  endfacet
  facet normal -0.92388 -0.382683 0
    outer loop
      vertex 18.4021 35.618 0
      vertex 18.282 35.908 4
      vertex 18.282 35.908 0
    endloop
  endfacet
  facet normal -0.92388 -0.382683 0
    outer loop
      vertex 18.282 35.908 4
      vertex 18.4021 35.618 0
      vertex 18.4021 35.618 4
    endloop
  endfacet
  facet normal -0.972371 -0.233442 0
    outer loop
      vertex 18.4754 35.3129 0
      vertex 18.4021 35.618 4
      vertex 18.4021 35.618 0
    endloop
  endfacet
  facet normal -0.972371 -0.233442 0
    outer loop
      vertex 18.4021 35.618 4
      vertex 18.4754 35.3129 0
      vertex 18.4754 35.3129 4
    endloop
  endfacet
  facet normal -0.852641 -0.522497 0
    outer loop
      vertex 18.282 35.908 0
      vertex 18.118 36.1756 4
      vertex 18.118 36.1756 0
    endloop
  endfacet
  facet normal -0.852641 -0.522497 0
    outer loop
      vertex 18.118 36.1756 4
      vertex 18.282 35.908 0
      vertex 18.282 35.908 4
    endloop
  endfacet
  facet normal -0.382688 -0.923878 0
    outer loop
      vertex 17.118 36.9021 0
      vertex 17.408 36.782 4
      vertex 17.118 36.9021 4
    endloop
  endfacet
  facet normal -0.382688 -0.923878 -0
    outer loop
      vertex 17.408 36.782 4
      vertex 17.118 36.9021 0
      vertex 17.408 36.782 0
    endloop
  endfacet
  facet normal -0.522497 -0.852641 0
    outer loop
      vertex 17.408 36.782 0
      vertex 17.6756 36.618 4
      vertex 17.408 36.782 4
    endloop
  endfacet
  facet normal -0.522497 -0.852641 -0
    outer loop
      vertex 17.6756 36.618 4
      vertex 17.408 36.782 0
      vertex 17.6756 36.618 0
    endloop
  endfacet
  facet normal -0.760406 -0.649449 0
    outer loop
      vertex 18.118 36.1756 0
      vertex 17.9142 36.4142 4
      vertex 17.9142 36.4142 0
    endloop
  endfacet
  facet normal -0.760406 -0.649449 0
    outer loop
      vertex 17.9142 36.4142 4
      vertex 18.118 36.1756 0
      vertex 18.118 36.1756 4
    endloop
  endfacet
  facet normal -0.233437 -0.972372 0
    outer loop
      vertex 16.8129 36.9754 0
      vertex 17.118 36.9021 4
      vertex 16.8129 36.9754 4
    endloop
  endfacet
  facet normal -0.233437 -0.972372 -0
    outer loop
      vertex 17.118 36.9021 4
      vertex 16.8129 36.9754 0
      vertex 17.118 36.9021 0
    endloop
  endfacet
  facet normal -0.078461 -0.996917 0
    outer loop
      vertex 16.5 37 0
      vertex 16.8129 36.9754 4
      vertex 16.5 37 4
    endloop
  endfacet
  facet normal -0.078461 -0.996917 -0
    outer loop
      vertex 16.8129 36.9754 4
      vertex 16.5 37 0
      vertex 16.8129 36.9754 0
    endloop
  endfacet
  facet normal 0 -1 0
    outer loop
      vertex -29.5 37 0
      vertex 16.5 37 4
      vertex -29.5 37 4
    endloop
  endfacet
  facet normal 0 -1 -0
    outer loop
      vertex 16.5 37 4
      vertex -29.5 37 0
      vertex 16.5 37 0
    endloop
  endfacet
  facet normal 0 1 -0
    outer loop
      vertex 18.5 14 0
      vertex -31.5 14 4
      vertex 18.5 14 4
    endloop
  endfacet
  facet normal 0 1 0
    outer loop
      vertex -31.5 14 4
      vertex 18.5 14 0
      vertex -31.5 14 0
    endloop
  endfacet
  facet normal 1 -0 0
    outer loop
      vertex -31.5 14 4
      vertex -31.5 35 0
      vertex -31.5 35 4
    endloop
  endfacet
  facet normal 1 0 0
    outer loop
      vertex -31.5 35 0
      vertex -31.5 14 4
      vertex -31.5 14 0
    endloop
  endfacet
  facet normal -1 0 0
    outer loop
      vertex 18.5 14 0
      vertex 18.5 35 4
      vertex 18.5 35 0
    endloop
  endfacet
  facet normal -1 -0 0
    outer loop
      vertex 18.5 35 4
      vertex 18.5 14 0
      vertex 18.5 14 4
    endloop
  endfacet
  facet normal 1 -0 0
    outer loop
      vertex -64.5 7.5 0
      vertex -64.5 47.5 -16
      vertex -64.5 47.5 0
    endloop
  endfacet
  facet normal 1 0 0
    outer loop
      vertex -64.5 47.5 -16
      vertex -64.5 7.5 0
      vertex -64.5 7.5 -16
    endloop
  endfacet
  facet normal -1 0 0
    outer loop
      vertex 64.5 5 -16
      vertex 64.5 47.5 0
      vertex 64.5 47.5 -16
    endloop
  endfacet
  facet normal -1 -0 0
    outer loop
      vertex 64.5 47.5 0
      vertex 64.5 5 -16
      vertex 64.5 5 0
    endloop
  endfacet
  facet normal 0 1 -0
    outer loop
      vertex 41 0 -16
      vertex 15 0 0
      vertex 41 0 0
    endloop
  endfacet
  facet normal 0 1 0
    outer loop
      vertex 15 0 0
      vertex 41 0 -16
      vertex 15 0 -16
    endloop
  endfacet
  facet normal 1 -0 0
    outer loop
      vertex -54 11.5 4
      vertex -54 31.5 0
      vertex -54 31.5 4
    endloop
  endfacet
  facet normal 1 0 0
    outer loop
      vertex -54 31.5 0
      vertex -54 11.5 4
      vertex -54 11.5 0
    endloop
  endfacet
  facet normal -1 0 0
    outer loop
      vertex -34 11.5 0
      vertex -34 31.5 4
      vertex -34 31.5 0
    endloop
  endfacet
  facet normal -1 -0 0
    outer loop
      vertex -34 31.5 4
      vertex -34 11.5 0
      vertex -34 11.5 4
    endloop
  endfacet
  facet normal 0 1 -0
    outer loop
      vertex -34 11.5 0
      vertex -54 11.5 4
      vertex -34 11.5 4
    endloop
  endfacet
  facet normal 0 1 0
    outer loop
      vertex -54 11.5 4
      vertex -34 11.5 0
      vertex -54 11.5 0
    endloop
  endfacet
  facet normal 0 -1 0
    outer loop
      vertex -54 31.5 0
      vertex -34 31.5 4
      vertex -54 31.5 4
    endloop
  endfacet
  facet normal 0 -1 -0
    outer loop
      vertex -34 31.5 4
      vertex -54 31.5 0
      vertex -34 31.5 0
    endloop
  endfacet
  facet normal 1 -0 0
    outer loop
      vertex 25 10 4
      vertex 25 44 0
      vertex 25 44 4
    endloop
  endfacet
  facet normal 1 0 0
    outer loop
      vertex 25 44 0
      vertex 25 10 4
      vertex 25 10 0
    endloop
  endfacet
  facet normal -1 0 0
    outer loop
      vertex 59 10 0
      vertex 59 44 4
      vertex 59 44 0
    endloop
  endfacet
  facet normal -1 -0 0
    outer loop
      vertex 59 44 4
      vertex 59 10 0
      vertex 59 10 4
    endloop
  endfacet
  facet normal 0 1 -0
    outer loop
      vertex 59 10 0
      vertex 25 10 4
      vertex 59 10 4
    endloop
  endfacet
  facet normal 0 1 0
    outer loop
      vertex 25 10 4
      vertex 59 10 0
      vertex 25 10 0
    endloop
  endfacet
  facet normal 0 -1 0
    outer loop
      vertex 25 44 0
      vertex 59 44 4
      vertex 25 44 4
    endloop
  endfacet
  facet normal 0 -1 -0
    outer loop
      vertex 59 44 4
      vertex 25 44 0
      vertex 59 44 0
    endloop
  endfacet
  facet normal -1 0 0
    outer loop
      vertex -66 7.5 -16
      vertex -66 47.5 4
      vertex -66 47.5 -16
    endloop
  endfacet
  facet normal -1 -0 0
    outer loop
      vertex -66 47.5 4
      vertex -66 7.5 -16
      vertex -66 7.5 4
    endloop
  endfacet
  facet normal -0 0 1
    outer loop
      vertex -31.5 14 4
      vertex 15 7.5 4
      vertex 18.5 14 4
    endloop
  endfacet
  facet normal 0 0 1
    outer loop
      vertex -34 11.5 4
      vertex -31.5 14 4
      vertex -34 31.5 4
    endloop
  endfacet
  facet normal -0 0 1
    outer loop
      vertex -34 11.5 4
      vertex 15 7.5 4
      vertex -31.5 14 4
    endloop
  endfacet
  facet normal 0 0 1
    outer loop
      vertex -66 7.5 4
      vertex -34 11.5 4
      vertex -54 11.5 4
    endloop
  endfacet
  facet normal 0 0 1
    outer loop
      vertex -34 11.5 4
      vertex -66 7.5 4
      vertex 15 7.5 4
    endloop
  endfacet
  facet normal 0 0 1
    outer loop
      vertex -54 31.5 4
      vertex -66 7.5 4
      vertex -54 11.5 4
    endloop
  endfacet
  facet normal 0 0 1
    outer loop
      vertex 19.9695 37.9775 4
      vertex 18.4754 35.3129 4
      vertex 18.5 35 4
    endloop
  endfacet
  facet normal 0 0 1
    outer loop
      vertex 18.8911 37.5308 4
      vertex 18.4021 35.618 4
      vertex 18.4754 35.3129 4
    endloop
  endfacet
  facet normal 0 0 1
    outer loop
      vertex 18.8911 37.5308 4
      vertex 18.282 35.908 4
      vertex 18.4021 35.618 4
    endloop
  endfacet
  facet normal 0 0 1
    outer loop
      vertex 18.8911 37.5308 4
      vertex 18.118 36.1756 4
      vertex 18.282 35.908 4
    endloop
  endfacet
  facet normal 0 0 1
    outer loop
      vertex 17.9142 36.4142 4
      vertex 18.5 37.5 4
      vertex 18.1089 37.5308 4
    endloop
  endfacet
  facet normal 0 0 1
    outer loop
      vertex 18.5 37.5 4
      vertex 17.9142 36.4142 4
      vertex 18.118 36.1756 4
    endloop
  endfacet
  facet normal 0 0 1
    outer loop
      vertex 17.6756 36.618 4
      vertex 18.1089 37.5308 4
      vertex 17.7275 37.6224 4
    endloop
  endfacet
  facet normal 0 0 1
    outer loop
      vertex 18.1089 37.5308 4
      vertex 17.6756 36.618 4
      vertex 17.9142 36.4142 4
    endloop
  endfacet
  facet normal 0 0 1
    outer loop
      vertex 17.7275 37.6224 4
      vertex 17.408 36.782 4
      vertex 17.6756 36.618 4
    endloop
  endfacet
  facet normal 0 0 1
    outer loop
      vertex 17.118 36.9021 4
      vertex 17.7275 37.6224 4
      vertex 17.365 37.7725 4
    endloop
  endfacet
  facet normal 0 0 1
    outer loop
      vertex 17.7275 37.6224 4
      vertex 17.118 36.9021 4
      vertex 17.408 36.782 4
    endloop
  endfacet
  facet normal 0 0 1
    outer loop
      vertex 16.8129 36.9754 4
      vertex 17.365 37.7725 4
      vertex 17.0305 37.9775 4
    endloop
  endfacet
  facet normal 0 0 1
    outer loop
      vertex 17.365 37.7725 4
      vertex 16.8129 36.9754 4
      vertex 17.118 36.9021 4
    endloop
  endfacet
  facet normal 0 0 1
    outer loop
      vertex 16.5 37 4
      vertex 17.0305 37.9775 4
      vertex 16.7322 38.2322 4
    endloop
  endfacet
  facet normal 0 0 1
    outer loop
      vertex 17.0305 37.9775 4
      vertex 16.5 37 4
      vertex 16.8129 36.9754 4
    endloop
  endfacet
  facet normal 0 0 1
    outer loop
      vertex 16.4775 38.5305 4
      vertex 16.5 37 4
      vertex 16.7322 38.2322 4
    endloop
  endfacet
  facet normal 0 0 1
    outer loop
      vertex 16.2725 38.865 4
      vertex 16.5 37 4
      vertex 16.4775 38.5305 4
    endloop
  endfacet
  facet normal 0 0 1
    outer loop
      vertex 16.1224 39.2275 4
      vertex 16.5 37 4
      vertex 16.2725 38.865 4
    endloop
  endfacet
  facet normal 0 0 1
    outer loop
      vertex 16.0308 39.6089 4
      vertex 16.5 37 4
      vertex 16.1224 39.2275 4
    endloop
  endfacet
  facet normal 0 0 1
    outer loop
      vertex 16.0308 39.6089 4
      vertex -29.5 37 4
      vertex 16.5 37 4
    endloop
  endfacet
  facet normal 0 0 1
    outer loop
      vertex -29.5 37 4
      vertex 16.0308 39.6089 4
      vertex 16 40 4
    endloop
  endfacet
  facet normal 0 0 1
    outer loop
      vertex 59 10 4
      vertex 66 47.5 4
      vertex 59 44 4
    endloop
  endfacet
  facet normal 0 0 1
    outer loop
      vertex 66 47.5 4
      vertex 25 44 4
      vertex 59 44 4
    endloop
  endfacet
  facet normal 0 0 1
    outer loop
      vertex 20.9692 39.6089 4
      vertex 25 44 4
      vertex 21 40 4
    endloop
  endfacet
  facet normal 0 0 1
    outer loop
      vertex 25 44 4
      vertex 20.9692 40.3911 4
      vertex 21 40 4
    endloop
  endfacet
  facet normal 0 0 1
    outer loop
      vertex 25 44 4
      vertex 20.8776 40.7725 4
      vertex 20.9692 40.3911 4
    endloop
  endfacet
  facet normal 0 0 1
    outer loop
      vertex 25 44 4
      vertex 20.7275 41.135 4
      vertex 20.8776 40.7725 4
    endloop
  endfacet
  facet normal 0 0 1
    outer loop
      vertex 25 44 4
      vertex 20.5225 41.4695 4
      vertex 20.7275 41.135 4
    endloop
  endfacet
  facet normal 0 0 1
    outer loop
      vertex 25 44 4
      vertex 20.2678 41.7678 4
      vertex 20.5225 41.4695 4
    endloop
  endfacet
  facet normal 0 0 1
    outer loop
      vertex 25 44 4
      vertex 19.9695 42.0225 4
      vertex 20.2678 41.7678 4
    endloop
  endfacet
  facet normal 0 0 1
    outer loop
      vertex 25 44 4
      vertex 19.635 42.2275 4
      vertex 19.9695 42.0225 4
    endloop
  endfacet
  facet normal 0 0 1
    outer loop
      vertex 25 44 4
      vertex 19.2725 42.3776 4
      vertex 19.635 42.2275 4
    endloop
  endfacet
  facet normal 0 0 1
    outer loop
      vertex 25 44 4
      vertex 18.8911 42.4692 4
      vertex 19.2725 42.3776 4
    endloop
  endfacet
  facet normal 0 0 1
    outer loop
      vertex 25 44 4
      vertex 18.5 42.5 4
      vertex 18.8911 42.4692 4
    endloop
  endfacet
  facet normal 0 0 1
    outer loop
      vertex 25 44 4
      vertex 18.1089 42.4692 4
      vertex 18.5 42.5 4
    endloop
  endfacet
  facet normal 0 0 1
    outer loop
      vertex 16.0308 40.3911 4
      vertex -29.5 37 4
      vertex 16 40 4
    endloop
  endfacet
  facet normal 0 0 1
    outer loop
      vertex 16.1224 40.7725 4
      vertex -29.5 37 4
      vertex 16.0308 40.3911 4
    endloop
  endfacet
  facet normal 0 0 1
    outer loop
      vertex 16.2725 41.135 4
      vertex -29.5 37 4
      vertex 16.1224 40.7725 4
    endloop
  endfacet
  facet normal 0 0 1
    outer loop
      vertex 16.4775 41.4695 4
      vertex -29.5 37 4
      vertex 16.2725 41.135 4
    endloop
  endfacet
  facet normal 0 0 1
    outer loop
      vertex 16.7322 41.7678 4
      vertex -29.5 37 4
      vertex 16.4775 41.4695 4
    endloop
  endfacet
  facet normal 0 0 1
    outer loop
      vertex 17.0305 42.0225 4
      vertex -29.5 37 4
      vertex 16.7322 41.7678 4
    endloop
  endfacet
  facet normal 0 0 1
    outer loop
      vertex 17.365 42.2275 4
      vertex -29.5 37 4
      vertex 17.0305 42.0225 4
    endloop
  endfacet
  facet normal 0 0 1
    outer loop
      vertex 17.7275 42.3776 4
      vertex -29.5 37 4
      vertex 17.365 42.2275 4
    endloop
  endfacet
  facet normal 0 0 1
    outer loop
      vertex -66 47.5 4
      vertex 17.7275 42.3776 4
      vertex 18.1089 42.4692 4
    endloop
  endfacet
  facet normal 0 0 1
    outer loop
      vertex -66 47.5 4
      vertex 18.1089 42.4692 4
      vertex 25 44 4
    endloop
  endfacet
  facet normal 0 0 1
    outer loop
      vertex 17.7275 42.3776 4
      vertex -66 47.5 4
      vertex -29.5 37 4
    endloop
  endfacet
  facet normal 0 0 1
    outer loop
      vertex -31.5 35 4
      vertex -34 31.5 4
      vertex -31.5 14 4
    endloop
  endfacet
  facet normal 0 0 1
    outer loop
      vertex -31.4754 35.3129 4
      vertex -34 31.5 4
      vertex -31.5 35 4
    endloop
  endfacet
  facet normal 0 0 1
    outer loop
      vertex -31.4021 35.618 4
      vertex -34 31.5 4
      vertex -31.4754 35.3129 4
    endloop
  endfacet
  facet normal 0 0 1
    outer loop
      vertex -54 31.5 4
      vertex -31.4021 35.618 4
      vertex -31.282 35.908 4
    endloop
  endfacet
  facet normal 0 0 1
    outer loop
      vertex -54 31.5 4
      vertex -31.282 35.908 4
      vertex -31.118 36.1756 4
    endloop
  endfacet
  facet normal 0 0 1
    outer loop
      vertex -31.4021 35.618 4
      vertex -54 31.5 4
      vertex -34 31.5 4
    endloop
  endfacet
  facet normal 0 0 1
    outer loop
      vertex -30.9142 36.4142 4
      vertex -54 31.5 4
      vertex -31.118 36.1756 4
    endloop
  endfacet
  facet normal 0 0 1
    outer loop
      vertex -66 47.5 4
      vertex -30.9142 36.4142 4
      vertex -30.6756 36.618 4
    endloop
  endfacet
  facet normal 0 0 1
    outer loop
      vertex -66 47.5 4
      vertex -30.6756 36.618 4
      vertex -30.408 36.782 4
    endloop
  endfacet
  facet normal 0 0 1
    outer loop
      vertex -66 47.5 4
      vertex -30.408 36.782 4
      vertex -30.118 36.9021 4
    endloop
  endfacet
  facet normal 0 0 1
    outer loop
      vertex -66 47.5 4
      vertex -30.118 36.9021 4
      vertex -29.8129 36.9754 4
    endloop
  endfacet
  facet normal 0 0 1
    outer loop
      vertex -66 7.5 4
      vertex -54 31.5 4
      vertex -66 47.5 4
    endloop
  endfacet
  facet normal 0 0 1
    outer loop
      vertex -30.9142 36.4142 4
      vertex -66 47.5 4
      vertex -54 31.5 4
    endloop
  endfacet
  facet normal 0 0 1
    outer loop
      vertex -29.5 37 4
      vertex -66 47.5 4
      vertex -29.8129 36.9754 4
    endloop
  endfacet
  facet normal -0 0 1
    outer loop
      vertex -66 47.5 4
      vertex 25 44 4
      vertex 66 47.5 4
    endloop
  endfacet
  facet normal 0 0 1
    outer loop
      vertex 66 47.5 4
      vertex 59 10 4
      vertex 66 5 4
    endloop
  endfacet
  facet normal 0 0 1
    outer loop
      vertex 59 10 4
      vertex 41 5 4
      vertex 66 5 4
    endloop
  endfacet
  facet normal -0 0 1
    outer loop
      vertex 25 10 4
      vertex 41 5 4
      vertex 59 10 4
    endloop
  endfacet
  facet normal 0 0 1
    outer loop
      vertex 25 10 4
      vertex 41 -2.5 4
      vertex 41 5 4
    endloop
  endfacet
  facet normal 0 0 1
    outer loop
      vertex 20.8776 39.2275 4
      vertex 25 44 4
      vertex 20.9692 39.6089 4
    endloop
  endfacet
  facet normal 0 0 1
    outer loop
      vertex 20.7275 38.865 4
      vertex 25 44 4
      vertex 20.8776 39.2275 4
    endloop
  endfacet
  facet normal 0 0 1
    outer loop
      vertex 25 44 4
      vertex 20.7275 38.865 4
      vertex 25 10 4
    endloop
  endfacet
  facet normal -0 0 1
    outer loop
      vertex 20.5225 38.5305 4
      vertex 25 10 4
      vertex 20.7275 38.865 4
    endloop
  endfacet
  facet normal 0 0 1
    outer loop
      vertex 18.5 35 4
      vertex 20.5225 38.5305 4
      vertex 20.2678 38.2322 4
    endloop
  endfacet
  facet normal 0 0 1
    outer loop
      vertex 18.5 35 4
      vertex 20.2678 38.2322 4
      vertex 19.9695 37.9775 4
    endloop
  endfacet
  facet normal 0 0 1
    outer loop
      vertex 18.4754 35.3129 4
      vertex 19.9695 37.9775 4
      vertex 19.635 37.7725 4
    endloop
  endfacet
  facet normal 0 0 1
    outer loop
      vertex 18.4754 35.3129 4
      vertex 19.635 37.7725 4
      vertex 19.2725 37.6224 4
    endloop
  endfacet
  facet normal 0 0 1
    outer loop
      vertex 18.4754 35.3129 4
      vertex 19.2725 37.6224 4
      vertex 18.8911 37.5308 4
    endloop
  endfacet
  facet normal 0 0 1
    outer loop
      vertex 18.118 36.1756 4
      vertex 18.8911 37.5308 4
      vertex 18.5 37.5 4
    endloop
  endfacet
  facet normal 0 0 1
    outer loop
      vertex 20.5225 38.5305 4
      vertex 18.5 35 4
      vertex 25 10 4
    endloop
  endfacet
  facet normal -0 0 1
    outer loop
      vertex 18.5 14 4
      vertex 25 10 4
      vertex 18.5 35 4
    endloop
  endfacet
  facet normal 0 0 1
    outer loop
      vertex 15 7.5 4
      vertex 25 10 4
      vertex 18.5 14 4
    endloop
  endfacet
  facet normal 0 0 1
    outer loop
      vertex 15 -2.5 4
      vertex 25 10 4
      vertex 15 7.5 4
    endloop
  endfacet
  facet normal 0 0 1
    outer loop
      vertex 25 10 4
      vertex 15 -2.5 4
      vertex 41 -2.5 4
    endloop
  endfacet
  facet normal 1 -0 0
    outer loop
      vertex 66 5 4
      vertex 66 47.5 -16
      vertex 66 47.5 4
    endloop
  endfacet
  facet normal 1 0 0
    outer loop
      vertex 66 47.5 -16
      vertex 66 5 4
      vertex 66 5 -16
    endloop
  endfacet
  facet normal 0 1 0
    outer loop
      vertex 66 47.5 4
      vertex 64.5 47.5 0
      vertex -66 47.5 4
    endloop
  endfacet
  facet normal 0 1 -0
    outer loop
      vertex 66 47.5 -16
      vertex 64.5 47.5 0
      vertex 66 47.5 4
    endloop
  endfacet
  facet normal 0 1 0
    outer loop
      vertex 64.5 47.5 0
      vertex 66 47.5 -16
      vertex 64.5 47.5 -16
    endloop
  endfacet
  facet normal 0 1 -0
    outer loop
      vertex -64.5 47.5 0
      vertex -66 47.5 4
      vertex 64.5 47.5 0
    endloop
  endfacet
  facet normal 0 1 0
    outer loop
      vertex -66 47.5 -16
      vertex -64.5 47.5 0
      vertex -64.5 47.5 -16
    endloop
  endfacet
  facet normal 0 1 0
    outer loop
      vertex -64.5 47.5 0
      vertex -66 47.5 -16
      vertex -66 47.5 4
    endloop
  endfacet
  facet normal 0 0 -1
    outer loop
      vertex -66 7.5 -16
      vertex -64.5 47.5 -16
      vertex -64.5 7.5 -16
    endloop
  endfacet
  facet normal -0 0 -1
    outer loop
      vertex -64.5 47.5 -16
      vertex -66 7.5 -16
      vertex -66 47.5 -16
    endloop
  endfacet
  facet normal 0 0 -1
    outer loop
      vertex 64.5 5 -16
      vertex 66 47.5 -16
      vertex 66 5 -16
    endloop
  endfacet
  facet normal -0 0 -1
    outer loop
      vertex 66 47.5 -16
      vertex 64.5 5 -16
      vertex 64.5 47.5 -16
    endloop
  endfacet
  facet normal 0 0 -1
    outer loop
      vertex 15 -2.5 -16
      vertex 41 0 -16
      vertex 41 -2.5 -16
    endloop
  endfacet
  facet normal -0 0 -1
    outer loop
      vertex 41 0 -16
      vertex 15 -2.5 -16
      vertex 15 0 -16
    endloop
  endfacet
  facet normal 0 -1 0
    outer loop
      vertex 15 -2.5 -16
      vertex 41 -2.5 4
      vertex 15 -2.5 4
    endloop
  endfacet
  facet normal 0 -1 -0
    outer loop
      vertex 41 -2.5 4
      vertex 15 -2.5 -16
      vertex 41 -2.5 -16
    endloop
  endfacet
  facet normal 1 0 0
    outer loop
      vertex 41 5 4
      vertex 41 0 0
      vertex 41 5 0
    endloop
  endfacet
  facet normal 1 -0 0
    outer loop
      vertex 41 -2.5 4
      vertex 41 0 0
      vertex 41 5 4
    endloop
  endfacet
  facet normal 1 0 0
    outer loop
      vertex 41 -2.5 -16
      vertex 41 0 0
      vertex 41 -2.5 4
    endloop
  endfacet
  facet normal 1 0 0
    outer loop
      vertex 41 0 0
      vertex 41 -2.5 -16
      vertex 41 0 -16
    endloop
  endfacet
  facet normal 0 -1 0
    outer loop
      vertex 64.5 5 0
      vertex 41 5 4
      vertex 41 5 0
    endloop
  endfacet
  facet normal 0 -1 0
    outer loop
      vertex 41 5 4
      vertex 64.5 5 0
      vertex 66 5 4
    endloop
  endfacet
  facet normal 0 -1 0
    outer loop
      vertex 66 5 -16
      vertex 64.5 5 0
      vertex 64.5 5 -16
    endloop
  endfacet
  facet normal 0 -1 0
    outer loop
      vertex 64.5 5 0
      vertex 66 5 -16
      vertex 66 5 4
    endloop
  endfacet
  facet normal -1 0 0
    outer loop
      vertex 15 0 -16
      vertex 15 -2.5 -16
      vertex 15 0 0
    endloop
  endfacet
  facet normal -1 0 0
    outer loop
      vertex 15 0 0
      vertex 15 7.5 4
      vertex 15 7.5 0
    endloop
  endfacet
  facet normal -1 0 0
    outer loop
      vertex 15 0 0
      vertex 15 -2.5 4
      vertex 15 7.5 4
    endloop
  endfacet
  facet normal -1 0 0
    outer loop
      vertex 15 -2.5 4
      vertex 15 0 0
      vertex 15 -2.5 -16
    endloop
  endfacet
  facet normal 0 -1 0
    outer loop
      vertex -66 7.5 4
      vertex -64.5 7.5 0
      vertex 15 7.5 4
    endloop
  endfacet
  facet normal 0 -1 0
    outer loop
      vertex -66 7.5 -16
      vertex -64.5 7.5 0
      vertex -66 7.5 4
    endloop
  endfacet
  facet normal 0 -1 -0
    outer loop
      vertex -64.5 7.5 0
      vertex -66 7.5 -16
      vertex -64.5 7.5 -16
    endloop
  endfacet
  facet normal 0 -1 -0
    outer loop
      vertex 15 7.5 4
      vertex -64.5 7.5 0
      vertex 15 7.5 0
    endloop
  endfacet
endsolid OpenSCAD_Model
